<svg width="150" height="70" viewBox="0 0 150 70" fill="none" xmlns="http://www.w3.org/2000/svg">
<rect width="150" height="70" rx="15" fill="#E94D4D"/>
<path d="M35.8244 45V25.3636H43.6866C45.1312 25.3636 46.3361 25.5778 47.3013 26.006C48.2665 26.4343 48.992 27.0288 49.4778 27.7894C49.9636 28.5437 50.2065 29.413 50.2065 30.3974C50.2065 31.1644 50.053 31.8388 49.7462 32.4205C49.4394 32.9957 49.0175 33.4687 48.4806 33.8395C47.9501 34.2038 47.3428 34.4627 46.6589 34.6161V34.8079C47.4067 34.8398 48.1067 35.0508 48.7587 35.4407C49.417 35.8306 49.9508 36.3771 50.3599 37.0803C50.769 37.777 50.9735 38.608 50.9735 39.5732C50.9735 40.6151 50.7146 41.5451 50.1969 42.3633C49.6855 43.1751 48.928 43.8175 47.9245 44.2905C46.9209 44.7635 45.6841 45 44.2139 45H35.8244ZM39.976 41.6058H43.3606C44.5175 41.6058 45.3613 41.3853 45.8918 40.9442C46.4224 40.4968 46.6876 39.9023 46.6876 39.1609C46.6876 38.6175 46.5566 38.1381 46.2945 37.7227C46.0324 37.3072 45.6585 36.9812 45.1727 36.7447C44.6933 36.5082 44.1212 36.3899 43.4565 36.3899H39.976V41.6058ZM39.976 33.5806H43.0538C43.6226 33.5806 44.1276 33.4815 44.5687 33.2834C45.0161 33.0788 45.3677 32.7912 45.6234 32.4205C45.8854 32.0497 46.0165 31.6055 46.0165 31.0877C46.0165 30.3782 45.764 29.8061 45.259 29.3714C44.7604 28.9368 44.0509 28.7195 43.1305 28.7195H39.976V33.5806ZM60.2524 45.2876C58.763 45.2876 57.475 44.9712 56.3884 44.3384C55.3081 43.6992 54.4739 42.8107 53.8859 41.6729C53.2978 40.5288 53.0038 39.2024 53.0038 37.6939C53.0038 36.1726 53.2978 34.843 53.8859 33.7053C54.4739 32.5611 55.3081 31.6726 56.3884 31.0398C57.475 30.4006 58.763 30.081 60.2524 30.081C61.7417 30.081 63.0265 30.4006 64.1068 31.0398C65.1934 31.6726 66.0308 32.5611 66.6188 33.7053C67.2069 34.843 67.5009 36.1726 67.5009 37.6939C67.5009 39.2024 67.2069 40.5288 66.6188 41.6729C66.0308 42.8107 65.1934 43.6992 64.1068 44.3384C63.0265 44.9712 61.7417 45.2876 60.2524 45.2876ZM60.2715 42.1236C60.9491 42.1236 61.5148 41.9318 61.9686 41.5483C62.4225 41.1584 62.7644 40.6278 62.9945 39.9567C63.231 39.2855 63.3493 38.5217 63.3493 37.6651C63.3493 36.8086 63.231 36.0447 62.9945 35.3736C62.7644 34.7024 62.4225 34.1719 61.9686 33.782C61.5148 33.392 60.9491 33.1971 60.2715 33.1971C59.5876 33.1971 59.0123 33.392 58.5457 33.782C58.0854 34.1719 57.7371 34.7024 57.5006 35.3736C57.2705 36.0447 57.1554 36.8086 57.1554 37.6651C57.1554 38.5217 57.2705 39.2855 57.5006 39.9567C57.7371 40.6278 58.0854 41.1584 58.5457 41.5483C59.0123 41.9318 59.5876 42.1236 60.2715 42.1236ZM74.0592 39.6115L79.3614 30.2727H83.3884V45H79.4956V35.6325L74.2126 45H70.1568V30.2727H74.0592V39.6115ZM78.6614 25.1335H81.5091C81.5027 26.2969 81.0712 27.2333 80.2147 27.9428C79.3646 28.6523 78.214 29.0071 76.763 29.0071C75.3056 29.0071 74.1519 28.6523 73.3017 27.9428C72.4516 27.2333 72.0265 26.2969 72.0265 25.1335H74.855C74.8486 25.5746 74.9892 25.9709 75.2769 26.3224C75.5709 26.674 76.0663 26.8498 76.763 26.8498C77.4406 26.8498 77.9264 26.6772 78.2204 26.332C78.5144 25.9869 78.6614 25.5874 78.6614 25.1335ZM85.1837 33.4847V30.2727H98.5303V33.4847H93.7842V45H89.8915V33.4847H85.1837ZM104.909 39.6115L110.211 30.2727H114.238V45H110.345V35.6325L105.062 45H101.006V30.2727H104.909V39.6115Z" fill="white"/>
</svg>
