<svg width="305" height="52" viewBox="0 0 305 52" fill="none" xmlns="http://www.w3.org/2000/svg">
<path d="M30.576 27.168C32.2827 27.168 33.4987 27.3387 34.224 27.68C34.992 27.9787 35.376 28.5547 35.376 29.408C35.376 30.56 33.52 31.7333 29.808 32.928C29.8933 36.1707 29.936 39.2853 29.936 42.272C29.936 45.216 29.7013 47.4347 29.232 48.928C28.7627 50.3787 28.016 51.104 26.992 51.104C25.968 51.104 25.1573 50.592 24.56 49.568C24.0053 48.5013 23.536 46.7733 23.152 44.384C22.8107 41.9947 22.448 38.8373 22.064 34.912C17.712 35.8933 14.576 36.6827 12.656 37.28C9.328 46.496 7.10933 51.104 6 51.104C5.104 51.104 3.90933 50.5067 2.416 49.312C0.965333 48.1173 0.24 46.88 0.24 45.6C0.24 44.8747 1.072 42.6133 2.736 38.816C2.01067 38.3467 1.37067 37.6853 0.816 36.832C0.304 35.936 0.0480001 35.0827 0.0480001 34.272C0.0480001 32.864 2.16 31.52 6.384 30.24C6.72533 29.3867 7.06667 28.4267 7.408 27.36C7.792 26.2507 8.70933 23.6907 10.16 19.68C11.6533 15.6693 12.8267 12.32 13.68 9.632C14.064 8.352 15.3867 7.15733 17.648 6.048C19.952 4.93866 21.744 4.384 23.024 4.384C24.5173 4.384 25.84 6.45333 26.992 10.592C28.1867 14.7307 29.0187 20.256 29.488 27.168H30.576ZM15.792 28.256C17.072 28.0853 18.928 27.872 21.36 27.616C21.232 26.3787 21.0187 24.2667 20.72 21.28C20.464 18.2933 20.272 16.1387 20.144 14.816C19.4187 17.2053 17.968 21.6853 15.792 28.256Z" fill="#E94D4D"/>
<path d="M45.3525 4.192C48.6805 4.192 52.3072 4.87466 56.2325 6.24C60.2005 7.60533 63.8698 9.39733 67.2405 11.616C70.6538 13.8347 73.4912 16.5013 75.7525 19.616C78.0565 22.7307 79.2085 25.888 79.2085 29.088C79.2085 31.4773 77.2672 34.464 73.3845 38.048C69.5445 41.5893 65.0858 44.6613 60.0085 47.264C54.9312 49.8667 50.7712 51.168 47.5285 51.168C46.8032 51.168 45.6298 50.2293 44.0085 48.352C42.4298 46.432 41.6405 45.024 41.6405 44.128C41.6405 42.3787 42.7925 37.5147 45.0965 29.536C47.4432 21.5147 48.8938 16.0107 49.4485 13.024C47.9125 12 46.6325 10.784 45.6085 9.376C44.5845 7.92533 44.0725 6.70933 44.0725 5.728C44.0725 4.704 44.4992 4.192 45.3525 4.192ZM69.9925 27.296C69.9925 25.9307 68.7338 24.1387 66.2165 21.92C63.6992 19.6587 60.7765 17.7813 57.4485 16.288C57.1925 19.488 55.3792 26.336 52.0085 36.832C51.8378 37.3867 51.5605 38.304 51.1765 39.584C50.8352 40.8213 50.5792 41.6533 50.4085 42.08C54.5898 40.672 58.8992 38.304 63.3365 34.976C67.7738 31.6053 69.9925 29.0453 69.9925 27.296ZM109.738 33.056C110.506 33.7387 110.89 34.3573 110.89 34.912C110.89 35.4667 110.634 36.6187 110.122 38.368C109.61 40.1173 109.268 41.4827 109.098 42.464C108.927 43.4027 108.778 44.1493 108.65 44.704C108.564 45.2587 108.5 45.7067 108.458 46.048C108.415 46.3467 108.33 46.7307 108.202 47.2C108.116 47.6693 108.031 48.0533 107.946 48.352C107.903 48.608 107.818 48.928 107.69 49.312C107.604 49.6533 107.498 49.9307 107.37 50.144C107.242 50.3147 107.092 50.5067 106.922 50.72C106.666 51.0613 106.239 51.232 105.642 51.232C105.044 51.232 104.298 50.6347 103.402 49.44C102.548 48.2453 101.908 46.7947 101.482 45.088C97.4708 49.184 94.1002 51.232 91.3695 51.232C89.5348 51.232 87.5508 50.2293 85.4175 48.224C83.2842 46.176 82.2175 44.1493 82.2175 42.144C82.2175 40.096 83.1348 37.1947 84.9695 33.44C86.8042 29.6853 89.3002 26.208 92.4575 23.008C95.6575 19.808 98.8148 18.208 101.93 18.208C103.722 18.208 105.791 19.2533 108.138 21.344C110.484 23.4347 111.658 25.3547 111.658 27.104C111.658 28.8107 111.018 30.7947 109.738 33.056ZM91.1135 43.168C92.8202 43.168 95.0815 42.016 97.8975 39.712C100.756 37.3653 102.527 34.4213 103.21 30.88C103.252 30.368 103.615 30.0693 104.298 29.984C104.17 27.552 103.764 26.336 103.082 26.336C101.375 26.336 99.4548 27.4453 97.3215 29.664C95.2308 31.8827 93.5028 34.2507 92.1375 36.768C90.8148 39.2853 90.1535 41.1413 90.1535 42.336C90.1535 42.6773 90.1962 42.912 90.2815 43.04C90.4095 43.1253 90.6868 43.168 91.1135 43.168ZM131.739 25.824C131.397 26.976 130.885 28.5973 130.203 30.688C129.563 32.736 128.752 35.3173 127.771 38.432C126.832 41.5467 126.363 43.2107 126.363 43.424C126.363 43.5947 126.704 43.68 127.387 43.68C128.112 43.68 129.797 43.2107 132.443 42.272C135.088 41.2907 136.645 40.8 137.115 40.8C138.181 40.8 138.715 41.5253 138.715 42.976C138.715 44.4267 137.285 46.176 134.427 48.224C131.568 50.2293 128.581 51.232 125.467 51.232C124.101 51.232 122.48 50.4853 120.603 48.992C118.725 47.4987 117.786 45.984 117.786 44.448C117.786 43.168 118.427 40.48 119.707 36.384C121.029 32.2453 121.925 29.408 122.395 27.872C120.731 28.3413 119.472 28.576 118.619 28.576C117.765 28.576 116.869 28 115.931 26.848C114.992 25.6533 114.523 24.5227 114.523 23.456C114.523 22.0907 117.829 20.9387 124.443 20C125.253 16.032 125.659 12.5973 125.659 9.696C125.659 8.416 126.299 7.776 127.579 7.776C128.688 7.776 130.096 8.45866 131.803 9.824C133.552 11.1467 134.427 12.4693 134.427 13.792C134.427 15.072 134.149 16.8853 133.595 19.232C135.643 19.1467 137.2 19.104 138.267 19.104C141.467 19.104 143.067 19.8293 143.067 21.28C143.067 22.2187 142.128 23.0293 140.251 23.712C138.416 24.352 135.579 25.056 131.739 25.824ZM171.238 33.056C172.006 33.7387 172.39 34.3573 172.39 34.912C172.39 35.4667 172.134 36.6187 171.622 38.368C171.11 40.1173 170.768 41.4827 170.598 42.464C170.427 43.4027 170.278 44.1493 170.15 44.704C170.064 45.2587 170 45.7067 169.958 46.048C169.915 46.3467 169.83 46.7307 169.702 47.2C169.616 47.6693 169.531 48.0533 169.446 48.352C169.403 48.608 169.318 48.928 169.19 49.312C169.104 49.6533 168.998 49.9307 168.87 50.144C168.742 50.3147 168.592 50.5067 168.422 50.72C168.166 51.0613 167.739 51.232 167.142 51.232C166.544 51.232 165.798 50.6347 164.902 49.44C164.048 48.2453 163.408 46.7947 162.982 45.088C158.971 49.184 155.6 51.232 152.87 51.232C151.035 51.232 149.051 50.2293 146.918 48.224C144.784 46.176 143.718 44.1493 143.718 42.144C143.718 40.096 144.635 37.1947 146.47 33.44C148.304 29.6853 150.8 26.208 153.958 23.008C157.158 19.808 160.315 18.208 163.43 18.208C165.222 18.208 167.291 19.2533 169.638 21.344C171.984 23.4347 173.158 25.3547 173.158 27.104C173.158 28.8107 172.518 30.7947 171.238 33.056ZM152.614 43.168C154.32 43.168 156.582 42.016 159.398 39.712C162.256 37.3653 164.027 34.4213 164.71 30.88C164.752 30.368 165.115 30.0693 165.798 29.984C165.67 27.552 165.264 26.336 164.582 26.336C162.875 26.336 160.955 27.4453 158.822 29.664C156.731 31.8827 155.003 34.2507 153.638 36.768C152.315 39.2853 151.654 41.1413 151.654 42.336C151.654 42.6773 151.696 42.912 151.782 43.04C151.91 43.1253 152.187 43.168 152.614 43.168ZM201.495 18.272C203.457 18.272 205.313 19.36 207.062 21.536C208.855 23.712 209.751 25.7813 209.751 27.744C209.751 29.7067 209.303 32.0107 208.407 34.656C207.511 37.3013 206.316 39.8613 204.823 42.336C203.329 44.8107 201.452 46.9013 199.191 48.608C196.929 50.3147 194.561 51.168 192.087 51.168C189.655 51.168 186.881 49.9947 183.767 47.648C182.913 50.0373 182.209 51.232 181.655 51.232C180.759 51.232 179.628 50.4853 178.263 48.992C176.897 47.4987 176.215 46.2827 176.215 45.344C176.215 44.4053 176.919 41.3333 178.327 36.128C182.551 20.512 184.663 9.20533 184.663 2.208C184.663 0.927998 185.281 0.287998 186.519 0.287998C187.5 0.287998 188.823 1.22666 190.487 3.104C192.151 4.93866 192.983 6.66667 192.983 8.288C192.983 12.0853 191.895 17.9947 189.719 26.016C194.583 20.8533 198.508 18.272 201.495 18.272ZM191.127 43.808C193.473 43.808 195.863 41.9733 198.295 38.304C200.769 34.6347 202.007 31.0293 202.007 27.488C202.007 27.232 201.943 27.0827 201.815 27.04C201.729 26.9547 201.452 26.912 200.983 26.912C198.636 26.912 196.119 28.32 193.431 31.136C190.785 33.952 188.439 37.472 186.391 41.696C188.183 43.104 189.761 43.808 191.127 43.808ZM240.175 33.056C240.943 33.7387 241.327 34.3573 241.327 34.912C241.327 35.4667 241.071 36.6187 240.559 38.368C240.047 40.1173 239.706 41.4827 239.535 42.464C239.364 43.4027 239.215 44.1493 239.087 44.704C239.002 45.2587 238.938 45.7067 238.895 46.048C238.852 46.3467 238.767 46.7307 238.639 47.2C238.554 47.6693 238.468 48.0533 238.383 48.352C238.34 48.608 238.255 48.928 238.127 49.312C238.042 49.6533 237.935 49.9307 237.807 50.144C237.679 50.3147 237.53 50.5067 237.359 50.72C237.103 51.0613 236.676 51.232 236.079 51.232C235.482 51.232 234.735 50.6347 233.839 49.44C232.986 48.2453 232.346 46.7947 231.919 45.088C227.908 49.184 224.538 51.232 221.807 51.232C219.972 51.232 217.988 50.2293 215.855 48.224C213.722 46.176 212.655 44.1493 212.655 42.144C212.655 40.096 213.572 37.1947 215.407 33.44C217.242 29.6853 219.738 26.208 222.895 23.008C226.095 19.808 229.252 18.208 232.367 18.208C234.159 18.208 236.228 19.2533 238.575 21.344C240.922 23.4347 242.095 25.3547 242.095 27.104C242.095 28.8107 241.455 30.7947 240.175 33.056ZM221.551 43.168C223.258 43.168 225.519 42.016 228.335 39.712C231.194 37.3653 232.964 34.4213 233.647 30.88C233.69 30.368 234.052 30.0693 234.735 29.984C234.607 27.552 234.202 26.336 233.519 26.336C231.812 26.336 229.892 27.4453 227.759 29.664C225.668 31.8827 223.94 34.2507 222.575 36.768C221.252 39.2853 220.591 41.1413 220.591 42.336C220.591 42.6773 220.634 42.912 220.719 43.04C220.847 43.1253 221.124 43.168 221.551 43.168ZM266.016 18.272C267.637 18.272 269.237 19.232 270.816 21.152C272.395 23.072 273.184 24.8 273.184 26.336C273.184 27.36 272.736 27.872 271.84 27.872C271.328 27.872 270.581 27.68 269.6 27.296C268.619 26.8693 267.616 26.656 266.592 26.656C265.611 26.656 264.139 26.9973 262.176 27.68C260.256 28.3627 259.296 29.2587 259.296 30.368C259.296 30.7947 259.872 31.4133 261.024 32.224C262.176 33.0347 263.435 33.8667 264.8 34.72C266.165 35.5733 267.424 36.768 268.576 38.304C269.728 39.7973 270.304 41.44 270.304 43.232C270.304 44.9813 269.003 46.752 266.4 48.544C263.84 50.336 260.811 51.232 257.312 51.232C253.856 51.232 250.891 50.4427 248.416 48.864C245.941 47.2853 244.704 45.664 244.704 44C244.704 42.336 245.387 41.504 246.752 41.504C247.307 41.504 247.968 41.7173 248.736 42.144C250.869 43.3813 253.515 44 256.672 44C259.872 44 261.472 43.5733 261.472 42.72C261.472 41.8667 260.853 40.928 259.616 39.904C258.421 38.8373 257.099 37.856 255.648 36.96C254.24 36.064 252.917 34.976 251.68 33.696C250.485 32.3733 249.888 31.0933 249.888 29.856C249.888 27.552 251.979 25.056 256.16 22.368C260.341 19.6373 263.627 18.272 266.016 18.272ZM304.147 30.176C304.147 32.2667 302.718 34.144 299.859 35.808C297.043 37.472 294.142 38.304 291.155 38.304C288.168 38.304 285.715 38.0907 283.795 37.664C283.411 38.816 283.219 39.968 283.219 41.12C283.219 42.272 283.411 43.104 283.795 43.616C284.179 44.0853 285.139 44.32 286.675 44.32C289.875 44.32 292.606 44.0213 294.867 43.424C297.171 42.8267 298.366 42.528 298.451 42.528C300.2 42.528 301.075 43.104 301.075 44.256C301.075 45.92 299.688 47.4987 296.915 48.992C294.184 50.4853 291.006 51.232 287.379 51.232C283.795 51.232 280.915 50.1013 278.739 47.84C276.563 45.5787 275.475 42.912 275.475 39.84C275.475 36.7253 276.371 33.4827 278.163 30.112C279.998 26.7413 282.28 23.9253 285.011 21.664C287.742 19.36 290.451 18.208 293.139 18.208C295.87 18.208 298.387 19.552 300.691 22.24C302.995 24.8853 304.147 27.5307 304.147 30.176ZM296.723 29.152C296.723 28.7253 296.275 28.1067 295.379 27.296C294.483 26.4853 293.63 26.08 292.819 26.08C292.051 26.08 291.048 26.656 289.811 27.808C288.574 28.9173 287.4 30.368 286.291 32.16C286.675 32.2027 287.23 32.224 287.955 32.224C293.8 32.224 296.723 31.2 296.723 29.152Z" fill="black"/>
</svg>
